Coordinates
version=1
nRows=11
nColumns=40
inDegrees=yes

Units are S.I. units (second, meters, Newtons, ...)
Angles are in degrees.

endheader
time	pelvis_tilt	pelvis_list	pelvis_rotation	pelvis_tx	pelvis_ty	pelvis_tz	hip_flexion_r	hip_adduction_r	hip_rotation_r	knee_angle_r	knee_angle_r_beta	ankle_angle_r	subtalar_angle_r	mtp_angle_r	hip_flexion_l	hip_adduction_l	hip_rotation_l	knee_angle_l	knee_angle_l_beta	ankle_angle_l	subtalar_angle_l	mtp_angle_l	lumbar_extension	lumbar_bending	lumbar_rotation	arm_flex_r	arm_add_r	arm_rot_r	elbow_flex_r	pro_sup_r	wrist_flex_r	wrist_dev_r	arm_flex_l	arm_add_l	arm_rot_l	elbow_flex_l	pro_sup_l	wrist_flex_l	wrist_dev_l
     58.36500000	     -7.32783786	     -5.11121145	      0.24962524	      1.09624899	      0.92001841	      0.50233703	     24.47020175	      2.50545674	    -13.29165907	     20.79960340	     20.79960340	      6.49136896	      0.70019180	     -1.20004484	     16.89836330	    -11.03412715	     -2.20332470	     50.34923398	     50.34923398	     16.72164335	    -18.85946422	      9.79349612	    -12.25615891	      7.44198086	      2.96679717	     -4.17865963	    -13.10247677	     -4.57558347	     27.04837530	     46.06204271	      0.00000000	      0.00000000	     24.99548991	    -14.55760471	      1.91836704	     89.24962410	     47.90092143	      0.00000000	      0.00000000
     58.37714286	     -7.28826459	     -5.43404954	      0.53354592	      1.09549034	      0.92112555	      0.50420190	     23.60229394	      2.92652470	    -13.82390459	     20.14907598	     20.14907598	      6.72437298	      1.22382338	     -1.21034167	     18.80156584	    -11.89749251	     -2.16418416	     53.38150183	     53.38150183	     16.51040629	    -19.11391825	     11.14672090	    -12.26903653	      7.77296599	      3.02244098	     -2.18540642	    -13.52640235	     -4.52776957	     27.79713970	     46.04773548	      0.00000000	      0.00000000	     23.75989653	    -14.20101978	      2.51599415	     87.65390760	     47.83188619	      0.00000000	      0.00000000
     58.38928571	     -7.18594290	     -5.55046793	      0.71614976	      1.09475694	      0.92237654	      0.50591802	     22.63528335	      3.14698741	    -14.31053566	     19.44287339	     19.44287339	      6.93191624	      2.08381858	     -1.27764670	     20.62105860	    -12.41533565	     -2.01002491	     56.18751477	     56.18751477	     17.51300162	    -19.26697851	     15.37628642	    -12.23605271	      7.82895758	      3.10384214	     -0.02370428	    -13.92197339	     -4.24569023	     28.47941752	     46.02395761	      0.00000000	      0.00000000	     22.86367249	    -13.83248915	      3.27189378	     84.64816958	     47.73779918	      0.00000000	      0.00000000
     58.40142857	     -7.08960507	     -5.62294436	      0.78827646	      1.09388132	      0.92340420	      0.50762981	     21.89975365	      3.33022279	    -14.59918305	     19.14341123	     19.14341123	      7.19777629	      2.59585994	     -1.37387567	     22.40326047	    -12.90201536	     -1.89601899	     58.62540658	     58.62540658	     18.58906769	    -19.33940966	     19.45543449	    -12.33141326	      7.82158544	      3.89758449	      1.80034113	    -14.52746077	     -3.85676999	     29.12664009	     45.99608870	      0.00000000	      0.00000000	     22.10973337	    -13.00302752	      4.30012239	     82.08927435	     47.64855528	      0.00000000	      0.00000000
     58.41357143	     -6.96840884	     -5.71157513	      0.83030111	      1.09306385	      0.92438058	      0.50932729	     21.07160166	      3.58750909	    -14.73810682	     18.70398121	     18.70398121	      7.46761904	      2.97901334	     -1.38222863	     23.97388852	    -13.47395401	     -1.89846783	     60.39048225	     60.39048225	     18.49174916	    -19.41386782	     19.60724887	    -12.45629915	      7.81262631	      4.07696834	      4.01173165	    -14.96413183	     -3.90758554	     30.07517063	     45.98088657	      0.00000000	      0.00000000	     20.58230182	    -12.79695511	      4.82896839	     80.47300427	     47.57940546	      0.00000000	      0.00000000
     58.42571429	     -6.81752879	     -5.64129619	      0.85091742	      1.09225260	      0.92548326	      0.51078974	     20.20432943	      3.65698807	    -14.87847041	     18.26303615	     18.26303615	      7.72080236	      3.52391674	     -1.39288633	     25.42354105	    -13.74965703	     -1.78539746	     61.69269499	     61.69269499	     18.60952405	    -19.46153108	     20.28582510	    -12.53838198	      7.64747304	      4.10736748	      6.41472336	    -15.27905459	     -3.82244852	     31.05934544	     45.95702846	      0.00000000	      0.00000000	     19.31514230	    -12.66398489	      5.27208493	     77.63305038	     47.49925813	      0.00000000	      0.00000000
     58.43785714	     -6.66817767	     -5.47765008	      0.81559997	      1.09131520	      0.92648894	      0.51208292	     19.45992385	      3.60412731	    -14.93017878	     18.04328009	     18.04328009	      8.04215882	      4.01372659	     -1.42407869	     26.81479801	    -13.83193964	     -1.62096130	     62.58613820	     62.58613820	     18.93222208	    -19.48064103	     21.34832338	    -12.64418452	      7.36289921	      4.78649012	      8.50048041	    -15.85718523	     -3.39146950	     31.86876587	     45.91835228	      0.00000000	      0.00000000	     18.60101540	    -11.86946879	      5.72942070	     73.75038437	     47.41448188	      0.00000000	      0.00000000
     58.45000000	     -6.51019549	     -5.28399861	      0.79215605	      1.09028344	      0.92742706	      0.51317957	     18.71375581	      3.52767898	    -14.87793996	     17.81279714	     17.81279714	      8.36925987	      4.30821474	     -1.43746862	     28.11744175	    -13.82059122	     -1.42971882	     62.99447060	     62.99447060	     18.92979581	    -19.48727265	     21.50325225	    -12.78388531	      7.04481763	      5.04364180	     10.75707043	    -16.30609813	     -3.05013090	     33.22122222	     45.86417111	      0.00000000	      0.00000000	     17.46317880	    -11.51467147	      6.07277140	     70.49354873	     47.34358703	      0.00000000	      0.00000000
     58.46214286	     -6.35364636	     -5.06539279	      0.80152260	      1.08910043	      0.92826879	      0.51411741	     17.99732636	      3.42067661	    -14.76585163	     17.60473074	     17.60473074	      8.68034237	      4.43971048	     -1.48172555	     29.35971270	    -13.70679409	     -1.17800990	     62.95927558	     62.95927558	     18.82429809	    -19.48436542	     21.44830688	    -12.97122112	      6.70047738	      4.93130325	     13.32426516	    -16.49056653	     -3.00461728	     34.64933529	     45.82462317	      0.00000000	      0.00000000	     15.87081326	    -11.57116015	      6.35403460	     68.05291538	     47.27654032	      0.00000000	      0.00000000
     58.47428571	     -6.21995736	     -4.84976123	      0.84057736	      1.08770623	      0.92895786	      0.51486600	     17.35156509	      3.29247639	    -14.66680570	     17.45222983	     17.45222983	      8.99762736	      4.51542044	     -1.56370323	     30.58735566	    -13.52931216	     -0.87949111	     62.54350808	     62.54350808	     18.63686295	    -19.47973055	     21.33809180	    -13.08452972	      6.36775311	      5.28968920	     15.47740186	    -17.04178347	     -2.23777110	     36.36136496	     45.73096590	      0.00000000	      0.00000000	     15.13736475	    -10.78892352	      6.03029034	     63.57720218	     47.23312116	      0.00000000	      0.00000000
     58.48642857	     -6.11778318	     -4.69172533	      0.94223476	      1.08606893	      0.92944277	      0.51547689	     16.76341673	      3.22556093	    -14.53125680	     17.30066215	     17.30066215	      9.28559625	      4.36847230	     -1.65177675	     31.81423091	    -13.34358411	     -0.50557516	     61.75977277	     61.75977277	     18.35936358	    -19.46575169	     21.17073609	    -13.21927835	      6.10680230	      5.33023060	     17.72017630	    -17.46269890	     -1.46914626	     38.63169591	     45.61912304	      0.00000000	      0.00000000	     14.05365842	    -10.41281573	      5.80746604	     59.82915822	     47.18820298	      0.00000000	      0.00000000
